<svg width="73" height="73" viewBox="0 0 73 73" fill="none" xmlns="http://www.w3.org/2000/svg">
<path d="M56.7878 56.788L63.5403 53.4117V44.9559M43.2524 29.7475L36.4999 33.1238M36.4999 33.1238L29.7474 29.7475M36.4999 33.1238V41.5796M63.5403 19.5884L56.7878 22.9646M63.5403 19.5884L56.7878 16.2121M63.5403 19.5884V28.0442M9.45947 19.5884L16.212 16.2121M9.45947 19.5884L16.212 22.9646M9.45947 19.5884V28.0442M36.4999 66.9167L29.7474 63.5405M36.4999 66.9167L43.2524 63.5405M36.4999 66.9167V58.4609M43.2524 9.45962L36.4999 6.08337L29.7474 9.45962H43.2524ZM16.212 56.788L9.45947 53.4117V44.9559L16.212 56.788Z" stroke="#A1C3FF" stroke-width="4" stroke-linecap="round" stroke-linejoin="round"/>
</svg>
