<svg width="73" height="73" viewBox="0 0 73 73" fill="none" xmlns="http://www.w3.org/2000/svg">
<path d="M41.8228 30.4167C42.6295 30.4167 43.4032 30.0962 43.9736 29.5258C44.544 28.9553 44.8645 28.1817 44.8645 27.375C44.8645 26.5683 44.544 25.7946 43.9736 25.2242C43.4032 24.6538 42.6295 24.3333 41.8228 24.3333C41.0161 24.3333 40.2425 24.6538 39.672 25.2242C39.1016 25.7946 38.7812 26.5683 38.7812 27.375C38.7812 28.1817 39.1016 28.9553 39.672 29.5258C40.2425 30.0962 41.0161 30.4167 41.8228 30.4167ZM31.177 30.4167C31.9837 30.4167 32.7573 30.0962 33.3278 29.5258C33.8982 28.9553 34.2187 28.1817 34.2187 27.375C34.2187 26.5683 33.8982 25.7946 33.3278 25.2242C32.7573 24.6538 31.9837 24.3333 31.177 24.3333C30.3703 24.3333 29.5966 24.6538 29.0262 25.2242C28.4558 25.7946 28.1353 26.5683 28.1353 27.375C28.1353 28.1817 28.4558 28.9553 29.0262 29.5258C29.5966 30.0962 30.3703 30.4167 31.177 30.4167ZM47.1457 39.5417C47.9524 39.5417 48.7261 39.2212 49.2965 38.6508C49.8669 38.0803 50.1874 37.3067 50.1874 36.5C50.1874 35.6933 49.8669 34.9196 49.2965 34.3492C48.7261 33.7788 47.9524 33.4583 47.1457 33.4583C46.339 33.4583 45.5654 33.7788 44.995 34.3492C44.4245 34.9196 44.1041 35.6933 44.1041 36.5C44.1041 37.3067 44.4245 38.0803 44.995 38.6508C45.5654 39.2212 46.339 39.5417 47.1457 39.5417ZM52.1645 29.6562C52.7695 29.6562 53.3498 29.4159 53.7776 28.9881C54.2054 28.5603 54.4457 27.98 54.4457 27.375C54.4457 26.77 54.2054 26.1897 53.7776 25.7619C53.3498 25.3341 52.7695 25.0937 52.1645 25.0937C51.5595 25.0937 50.9792 25.3341 50.5514 25.7619C50.1236 26.1897 49.8832 26.77 49.8832 27.375C49.8832 27.98 50.1236 28.5603 50.5514 28.9881C50.9792 29.4159 51.5595 29.6562 52.1645 29.6562ZM52.1645 47.9062C52.7695 47.9062 53.3498 47.6659 53.7776 47.2381C54.2054 46.8103 54.4457 46.23 54.4457 45.625C54.4457 45.02 54.2054 44.4397 53.7776 44.0119C53.3498 43.5841 52.7695 43.3437 52.1645 43.3437C51.5595 43.3437 50.9792 43.5841 50.5514 44.0119C50.1236 44.4397 49.8832 45.02 49.8832 45.625C49.8832 46.23 50.1236 46.8103 50.5514 47.2381C50.9792 47.6659 51.5595 47.9062 52.1645 47.9062ZM60.0728 38.7812C60.6778 38.7812 61.2581 38.5409 61.6859 38.1131C62.1137 37.6853 62.3541 37.105 62.3541 36.5C62.3541 35.895 62.1137 35.3147 61.6859 34.8869C61.2581 34.4591 60.6778 34.2187 60.0728 34.2187C59.4678 34.2187 58.8875 34.4591 58.4597 34.8869C58.0319 35.3147 57.7916 35.895 57.7916 36.5C57.7916 37.105 58.0319 37.6853 58.4597 38.1131C58.8875 38.5409 59.4678 38.7812 60.0728 38.7812ZM20.6832 29.6562C21.2883 29.6562 21.8685 29.4159 22.2963 28.9881C22.7241 28.5603 22.9645 27.98 22.9645 27.375C22.9645 26.77 22.7241 26.1897 22.2963 25.7619C21.8685 25.3341 21.2883 25.0937 20.6832 25.0937C20.0782 25.0937 19.498 25.3341 19.0701 25.7619C18.6423 26.1897 18.402 26.77 18.402 27.375C18.402 27.98 18.6423 28.5603 19.0701 28.9881C19.498 29.4159 20.0782 29.6562 20.6832 29.6562ZM20.6832 47.9062C21.2883 47.9062 21.8685 47.6659 22.2963 47.2381C22.7241 46.8103 22.9645 46.23 22.9645 45.625C22.9645 45.02 22.7241 44.4397 22.2963 44.0119C21.8685 43.5841 21.2883 43.3437 20.6832 43.3437C20.0782 43.3437 19.498 43.5841 19.0701 44.0119C18.6423 44.4397 18.402 45.02 18.402 45.625C18.402 46.23 18.6423 46.8103 19.0701 47.2381C19.498 47.6659 20.0782 47.9062 20.6832 47.9062ZM12.7749 38.7812C13.3799 38.7812 13.9602 38.5409 14.388 38.1131C14.8158 37.6853 15.0562 37.105 15.0562 36.5C15.0562 35.895 14.8158 35.3147 14.388 34.8869C13.9602 34.4591 13.3799 34.2187 12.7749 34.2187C12.1699 34.2187 11.5896 34.4591 11.1618 34.8869C10.734 35.3147 10.4937 35.895 10.4937 36.5C10.4937 37.105 10.734 37.6853 11.1618 38.1131C11.5896 38.5409 12.1699 38.7812 12.7749 38.7812ZM48.3624 18.0979C48.9674 18.0979 49.5477 17.8576 49.9755 17.4297C50.4033 17.0019 50.6436 16.4217 50.6436 15.8167C50.6436 15.2116 50.4033 14.6314 49.9755 14.2036C49.5477 13.7757 48.9674 13.5354 48.3624 13.5354C47.7574 13.5354 47.1771 13.7757 46.7493 14.2036C46.3215 14.6314 46.0811 15.2116 46.0811 15.8167C46.0811 16.4217 46.3215 17.0019 46.7493 17.4297C47.1771 17.8576 47.7574 18.0979 48.3624 18.0979ZM24.6374 18.0979C25.2424 18.0979 25.8227 17.8576 26.2505 17.4297C26.6783 17.0019 26.9187 16.4217 26.9187 15.8167C26.9187 15.2116 26.6783 14.6314 26.2505 14.2036C25.8227 13.7757 25.2424 13.5354 24.6374 13.5354C24.0324 13.5354 23.4521 13.7757 23.0243 14.2036C22.5965 14.6314 22.3562 15.2116 22.3562 15.8167C22.3562 16.4217 22.5965 17.0019 23.0243 17.4297C23.4521 17.8576 24.0324 18.0979 24.6374 18.0979ZM36.652 20.5312C37.257 20.5312 37.8373 20.2909 38.2651 19.8631C38.6929 19.4353 38.9332 18.855 38.9332 18.25C38.9332 17.645 38.6929 17.0647 38.2651 16.6369C37.8373 16.2091 37.257 15.9687 36.652 15.9687C36.047 15.9687 35.4667 16.2091 35.0389 16.6369C34.6111 17.0647 34.3707 17.645 34.3707 18.25C34.3707 18.855 34.6111 19.4353 35.0389 19.8631C35.4667 20.2909 36.047 20.5312 36.652 20.5312ZM48.3624 60.0729C48.9674 60.0729 49.5477 59.8326 49.9755 59.4047C50.4033 58.9769 50.6436 58.3967 50.6436 57.7917C50.6436 57.1866 50.4033 56.6064 49.9755 56.1786C49.5477 55.7507 48.9674 55.5104 48.3624 55.5104C47.7574 55.5104 47.1771 55.7507 46.7493 56.1786C46.3215 56.6064 46.0811 57.1866 46.0811 57.7917C46.0811 58.3967 46.3215 58.9769 46.7493 59.4047C47.1771 59.8326 47.7574 60.0729 48.3624 60.0729ZM24.6374 60.0729C25.2424 60.0729 25.8227 59.8326 26.2505 59.4047C26.6783 58.9769 26.9187 58.3967 26.9187 57.7917C26.9187 57.1866 26.6783 56.6064 26.2505 56.1786C25.8227 55.7507 25.2424 55.5104 24.6374 55.5104C24.0324 55.5104 23.4521 55.7507 23.0243 56.1786C22.5965 56.6064 22.3562 57.1866 22.3562 57.7917C22.3562 58.3967 22.5965 58.9769 23.0243 59.4047C23.4521 59.8326 24.0324 60.0729 24.6374 60.0729ZM36.652 57.6396C37.257 57.6396 37.8373 57.3992 38.2651 56.9714C38.6929 56.5436 38.9332 55.9633 38.9332 55.3583C38.9332 54.7533 38.6929 54.173 38.2651 53.7452C37.8373 53.3174 37.257 53.0771 36.652 53.0771C36.047 53.0771 35.4667 53.3174 35.0389 53.7452C34.6111 54.173 34.3707 54.7533 34.3707 55.3583C34.3707 55.9633 34.6111 56.5436 35.0389 56.9714C35.4667 57.3992 36.047 57.6396 36.652 57.6396ZM25.8541 39.5417C26.6608 39.5417 27.4344 39.2212 28.0049 38.6508C28.5753 38.0803 28.8957 37.3067 28.8957 36.5C28.8957 35.6933 28.5753 34.9196 28.0049 34.3492C27.4344 33.7788 26.6608 33.4583 25.8541 33.4583C25.0474 33.4583 24.2737 33.7788 23.7033 34.3492C23.1329 34.9196 22.8124 35.6933 22.8124 36.5C22.8124 37.3067 23.1329 38.0803 23.7033 38.6508C24.2737 39.2212 25.0474 39.5417 25.8541 39.5417ZM31.177 48.6667C31.9837 48.6667 32.7573 48.3462 33.3278 47.7758C33.8982 47.2053 34.2187 46.4317 34.2187 45.625C34.2187 44.8183 33.8982 44.0446 33.3278 43.4742C32.7573 42.9038 31.9837 42.5833 31.177 42.5833C30.3703 42.5833 29.5966 42.9038 29.0262 43.4742C28.4558 44.0446 28.1353 44.8183 28.1353 45.625C28.1353 46.4317 28.4558 47.2053 29.0262 47.7758C29.5966 48.3462 30.3703 48.6667 31.177 48.6667ZM41.8228 48.6667C42.6295 48.6667 43.4032 48.3462 43.9736 47.7758C44.544 47.2053 44.8645 46.4317 44.8645 45.625C44.8645 44.8183 44.544 44.0446 43.9736 43.4742C43.4032 42.9038 42.6295 42.5833 41.8228 42.5833C41.0161 42.5833 40.2425 42.9038 39.672 43.4742C39.1016 44.0446 38.7812 44.8183 38.7812 45.625C38.7812 46.4317 39.1016 47.2053 39.672 47.7758C40.2425 48.3462 41.0161 48.6667 41.8228 48.6667Z" stroke="#A1C3FF" stroke-width="3" stroke-miterlimit="10"/>
</svg>
