<svg width="73" height="73" viewBox="0 0 73 73" fill="none" xmlns="http://www.w3.org/2000/svg">
<path d="M29.1998 60.8333H43.7998C55.9665 60.8333 60.8332 55.9666 60.8332 43.8V29.2C60.8332 17.0333 55.9665 12.1666 43.7998 12.1666H29.1998C17.0332 12.1666 12.1665 17.0333 12.1665 29.2V43.8C12.1665 55.9666 17.0332 60.8333 29.1998 60.8333Z" stroke="#A1C3FF" stroke-width="4" stroke-linecap="round" stroke-linejoin="round"/>
<path d="M24.3639 12.1667V6.08337M36.5002 12.1667V6.08337M48.6668 12.1667V6.08337M60.8335 24.3334H66.9168M60.8335 36.5H66.9168M60.8335 48.6667H66.9168M48.6668 60.8334V66.9167M36.5306 60.8334V66.9167M24.3639 60.8334V66.9167M6.0835 24.3334H12.1668M6.0835 36.5H12.1668M6.0835 48.6667H12.1668M31.9377 51.7084H41.0627C48.6668 51.7084 51.7085 48.6667 51.7085 41.0625V31.9375C51.7085 24.3334 48.6668 21.2917 41.0627 21.2917H31.9377C24.3335 21.2917 21.2918 24.3334 21.2918 31.9375V41.0625C21.2918 48.6667 24.3335 51.7084 31.9377 51.7084Z" stroke="#A1C3FF" stroke-width="4" stroke-linecap="round" stroke-linejoin="round"/>
</svg>
